<svg xmlns="http://www.w3.org/2000/svg" version="1.1" xmlns:xlink="http://www.w3.org/1999/xlink" xmlns:svgjs="http://svgjs.dev/svgjs" width="1000" height="623" viewBox="0 0 1000 623"><g transform="matrix(1,0,0,1,-0.6060606060606233,0.2522267206477409)"><svg viewBox="0 0 396 247" data-background-color="#282634" preserveAspectRatio="xMidYMid meet" height="623" width="1000" xmlns="http://www.w3.org/2000/svg" xmlns:xlink="http://www.w3.org/1999/xlink"><g id="tight-bounds" transform="matrix(1,0,0,1,0.2400000000000091,-0.09999999999999432)"><svg viewBox="0 0 395.52 247.2" height="247.2" width="395.52"><g><svg></svg></g><g><svg viewBox="0 0 395.52 247.2" height="247.2" width="395.52"><g transform="matrix(1,0,0,1,75.54432000000001,90.52736083559643)"><svg viewBox="0 0 244.43135999999996 66.14527832880712" height="66.14527832880712" width="244.43135999999996"><g><svg viewBox="0 0 244.43135999999996 66.14527832880712" height="66.14527832880712" width="244.43135999999996"><g><svg viewBox="0 0 244.43135999999996 66.14527832880712" height="66.14527832880712" width="244.43135999999996"><g><svg viewBox="0 0 244.43135999999996 66.14527832880712" height="66.14527832880712" width="244.43135999999996"><g id="textblocktransform"><svg viewBox="0 0 244.43135999999996 66.14527832880712" height="66.14527832880712" width="244.43135999999996" id="textblock"><g><svg viewBox="0 0 244.43135999999996 40.59837225051617" height="40.59837225051617" width="244.43135999999996"><g transform="matrix(1,0,0,1,0,0)"><svg width="244.43135999999996" viewBox="4.5 -35.599998474121094 217.92999267578125 36.19999694824219" height="40.59837225051617" data-palette-color="#ff4057"><path d="M12.9 0L4.5 0 4.5-32.8 12.7-32.8Q20.3-32.8 24.25-28.6 28.2-24.4 28.2-16.55L28.2-16.55Q28.2-12.65 27.2-9.58 26.2-6.5 24.25-4.38 22.3-2.25 19.45-1.13 16.6 0 12.9 0L12.9 0ZM8.65-29.4L8.65-3.4 12.4-3.4Q18.15-3.4 21.03-6.85 23.9-10.3 23.9-16.55L23.9-16.55Q23.9-22.8 21.03-26.1 18.15-29.4 12.4-29.4L12.4-29.4 8.65-29.4ZM44.7 0.6L44.7 0.6Q42.25 0.6 40.12-0.28 38-1.15 36.42-2.78 34.85-4.4 33.95-6.75 33.05-9.1 33.05-12.1L33.05-12.1Q33.05-15.1 33.97-17.48 34.9-19.85 36.42-21.5 37.95-23.15 39.9-24.03 41.85-24.9 43.95-24.9L43.95-24.9Q46.25-24.9 48.07-24.1 49.9-23.3 51.12-21.8 52.35-20.3 53-18.2 53.65-16.1 53.65-13.5L53.65-13.5Q53.65-12.85 53.62-12.23 53.6-11.6 53.5-11.15L53.5-11.15 37.1-11.15Q37.35-7.25 39.52-4.98 41.7-2.7 45.2-2.7L45.2-2.7Q46.95-2.7 48.42-3.23 49.9-3.75 51.25-4.6L51.25-4.6 52.7-1.9Q51.1-0.9 49.15-0.15 47.2 0.6 44.7 0.6ZM37.05-14.1L37.05-14.1 50.05-14.1Q50.05-17.8 48.47-19.73 46.9-21.65 44.05-21.65L44.05-21.65Q42.75-21.65 41.57-21.15 40.4-20.65 39.45-19.68 38.5-18.7 37.87-17.3 37.25-15.9 37.05-14.1ZM69.95 0L65.14 0 56.4-24.3 60.65-24.3 65.25-10.5Q65.8-8.7 66.37-6.9 66.95-5.1 67.5-3.35L67.5-3.35 67.7-3.35Q68.25-5.1 68.8-6.9 69.34-8.7 69.9-10.5L69.9-10.5 74.5-24.3 78.55-24.3 69.95 0ZM87.39 0L83.64 0 83.64-32.8 88.64-32.8 94.94-15.3Q95.54-13.6 96.12-11.88 96.69-10.15 97.29-8.45L97.29-8.45 97.49-8.45Q98.09-10.15 98.62-11.88 99.14-13.6 99.74-15.3L99.74-15.3 105.94-32.8 110.99-32.8 110.99 0 107.09 0 107.09-18.05Q107.09-20.25 107.29-22.9 107.49-25.55 107.64-27.75L107.64-27.75 107.44-27.75 104.84-20.3 98.64-3.3 95.89-3.3 89.69-20.3 87.09-27.75 86.89-27.75Q87.04-25.55 87.22-22.9 87.39-20.25 87.39-18.05L87.39-18.05 87.39 0ZM125.19 0.6L125.19 0.6Q122.14 0.6 120.12-1.2 118.09-3 118.09-6.3L118.09-6.3Q118.09-10.3 121.64-12.43 125.19-14.55 132.99-15.4L132.99-15.4Q132.99-16.55 132.77-17.65 132.54-18.75 131.99-19.6 131.44-20.45 130.47-20.98 129.49-21.5 127.99-21.5L127.99-21.5Q125.89-21.5 124.04-20.7 122.19-19.9 120.74-18.9L120.74-18.9 119.14-21.75Q120.84-22.85 123.29-23.88 125.74-24.9 128.69-24.9L128.69-24.9Q133.14-24.9 135.14-22.18 137.14-19.45 137.14-14.9L137.14-14.9 137.14 0 133.74 0 133.39-2.9 133.24-2.9Q131.49-1.45 129.49-0.43 127.49 0.6 125.19 0.6ZM126.39-2.7L126.39-2.7Q128.14-2.7 129.69-3.53 131.24-4.35 132.99-5.95L132.99-5.95 132.99-12.7Q129.94-12.3 127.87-11.75 125.79-11.2 124.52-10.45 123.24-9.7 122.67-8.72 122.09-7.75 122.09-6.6L122.09-6.6Q122.09-4.5 123.34-3.6 124.59-2.7 126.39-2.7ZM148.89 0L144.79 0 144.79-24.3 148.19-24.3 148.54-19.9 148.69-19.9Q149.94-22.2 151.71-23.55 153.49-24.9 155.59-24.9L155.59-24.9Q157.04-24.9 158.19-24.4L158.19-24.4 157.39-20.8Q156.79-21 156.29-21.1 155.79-21.2 155.04-21.2L155.04-21.2Q153.49-21.2 151.81-19.95 150.14-18.7 148.89-15.6L148.89-15.6 148.89 0ZM166.19 0L162.13 0 162.13-35.6 166.19-35.6 166.19-11.5 166.34-11.5 176.69-24.3 181.24-24.3 173.09-14.55 182.34 0 177.84 0 170.73-11.7 166.19-6.4 166.19 0ZM195.83 0.6L195.83 0.6Q193.38 0.6 191.26-0.28 189.13-1.15 187.56-2.78 185.98-4.4 185.08-6.75 184.18-9.1 184.18-12.1L184.18-12.1Q184.18-15.1 185.11-17.48 186.03-19.85 187.56-21.5 189.08-23.15 191.03-24.03 192.98-24.9 195.08-24.9L195.08-24.9Q197.38-24.9 199.21-24.1 201.03-23.3 202.26-21.8 203.48-20.3 204.13-18.2 204.78-16.1 204.78-13.5L204.78-13.5Q204.78-12.85 204.76-12.23 204.73-11.6 204.63-11.15L204.63-11.15 188.23-11.15Q188.48-7.25 190.66-4.98 192.83-2.7 196.33-2.7L196.33-2.7Q198.08-2.7 199.56-3.23 201.03-3.75 202.38-4.6L202.38-4.6 203.83-1.9Q202.23-0.9 200.28-0.15 198.33 0.6 195.83 0.6ZM188.18-14.1L188.18-14.1 201.18-14.1Q201.18-17.8 199.61-19.73 198.03-21.65 195.18-21.65L195.18-21.65Q193.88-21.65 192.71-21.15 191.53-20.65 190.58-19.68 189.63-18.7 189.01-17.3 188.38-15.9 188.18-14.1ZM217.93 0.6L217.93 0.6Q215.98 0.6 214.66 0 213.33-0.6 212.5-1.65 211.68-2.7 211.33-4.2 210.98-5.7 210.98-7.5L210.98-7.5 210.98-20.95 207.38-20.95 207.38-24.05 211.18-24.3 211.68-31.1 215.13-31.1 215.13-24.3 221.68-24.3 221.68-20.95 215.13-20.95 215.13-7.45Q215.13-5.2 215.96-3.98 216.78-2.75 218.88-2.75L218.88-2.75Q219.53-2.75 220.28-2.95 221.03-3.15 221.63-3.4L221.63-3.4 222.43-0.3Q221.43 0.05 220.25 0.33 219.08 0.6 217.93 0.6Z" opacity="1" transform="matrix(1,0,0,1,0,0)" fill="#ff4057" class="wordmark-text-0" data-fill-palette-color="primary" id="text-0"></path></svg></g></svg></g><g transform="matrix(1,0,0,1,0,50.18267357792902)"><svg viewBox="0 0 244.43135999999996 15.9626047508781" height="15.9626047508781" width="244.43135999999996"><g transform="matrix(1,0,0,1,0,0)"><svg width="244.43135999999996" viewBox="4 -37.70000076293945 768.6099853515625 50.20000076293945" height="15.9626047508781" data-palette-color="#dcdcdc"><path d="M7.4 0L4 0 4-35 11.25-35Q17.4-35 20.15-33.05L20.15-33.05Q23.35-30.8 23.35-25.35L23.35-25.35Q23.35-16.25 16.35-14.25L16.35-14.25Q14.1-13.6 11.25-13.6L11.25-13.6 7.4-13.6 7.4 0ZM11-32.25L7.4-32.25 7.4-16.35 11-16.35Q15.5-16.35 17.73-18.32 19.95-20.3 19.95-24.78 19.95-29.25 17.73-30.75 15.5-32.25 11-32.25L11-32.25ZM41.95-24.5L40.65-21.5Q39.85-21.95 38.95-21.95 38.05-21.95 37.95-21.9L37.95-21.9Q36.05-21.9 34.12-20.53 32.2-19.15 30.85-17.45L30.85-17.45 30.85 0 27.6 0 27.6-25 30.85-25.25 30.85-19.65Q32.7-22 34-22.95L34-22.95Q36.4-24.75 38.6-24.85L38.6-24.85Q38.9-24.9 39.7-24.9 40.5-24.9 41.95-24.5L41.95-24.5ZM43.25-6.4L43.25-6.4Q42.35-8.8 42.35-12L42.35-12Q42.35-18.15 45.8-21.68 49.25-25.2 54.45-25.2L54.45-25.2Q62.6-25.2 65.15-18.6L65.15-18.6Q66.09-16.2 66.09-13L66.09-13Q66.09-6.85 62.65-3.33 59.2 0.2 54 0.2L54 0.2Q45.85 0.2 43.25-6.4ZM45.6-12.35Q45.6-7.75 47.97-5.23 50.35-2.7 54.1-2.7 57.85-2.7 60.35-5.38 62.85-8.05 62.85-12.65 62.85-17.25 60.5-19.78 58.15-22.3 54.37-22.3 50.6-22.3 48.1-19.63 45.6-16.95 45.6-12.35ZM82.74-25.25L82.74-25.25Q85.69-25.25 88.34-23.5L88.34-23.5 88.34-37.25 91.59-37.5 91.59-1.15 91.34-1.15Q89.79-0.5 86.17-0.15 82.54 0.2 81.14 0.2L81.14 0.2Q76.94 0.2 74.19-1.9L74.19-1.9Q70.34-4.8 70.34-11.45 70.34-18.1 73.92-21.68 77.49-25.25 82.74-25.25ZM88.34-3.2L88.34-21.35Q85.84-22.3 83.44-22.3L83.44-22.3Q78.84-22.3 76.22-19.5 73.59-16.7 73.59-11.55 73.59-6.4 76.44-4.3L76.44-4.3Q78.49-2.7 81.62-2.7 84.74-2.7 88.34-3.2L88.34-3.2ZM102.49-3.2L102.49-3.2Q103.59-2.8 105.99-2.8 108.39-2.8 112.19-4.75L112.19-4.75 112.19-25 115.44-25.25 115.44 0 112.19 0 112.19-2.7Q108.49 0.15 104.64 0.15L104.64 0.15Q99.84 0.15 97.69-2.7L97.69-2.7Q96.59-4.1 96.59-6.6L96.59-6.6 96.59-25 99.84-25.25 99.84-7.45Q99.84-4.35 102.49-3.2ZM137.84-16.4L137.59-21.65Q135.54-22.3 133.39-22.3L133.39-22.3Q129.04-22.3 126.41-19.5 123.79-16.7 123.79-11.6L123.79-11.6Q123.79-2.7 132.04-2.7L132.04-2.7Q135.34-2.7 138.84-3.8L138.84-3.8Q139.54-4 139.69-4.1L139.69-4.1 140.49-1.4Q138.74-0.35 134.14 0.1L134.14 0.1Q132.84 0.2 131.39 0.2L131.39 0.2Q127.14 0.2 124.39-1.9L124.39-1.9Q120.54-4.8 120.54-11.45 120.54-18.1 124.11-21.68 127.69-25.25 133.34-25.25L133.34-25.25Q135.14-25.25 137.16-24.78 139.19-24.3 140.29-23.3L140.29-23.3 140.29-16.75 137.84-16.4ZM156.09-3.6L156.69-0.9Q155.79 0 153.44 0L153.44 0Q150.14 0 148.99-1.7L148.99-1.7Q147.04-3.55 147.04-6.7L147.04-6.7 147.04-22.1 144.24-22.1 144.69-25 147.04-25 147.04-29.95 150.29-30.25 150.29-25 156.09-25 156.09-22.1 150.29-22.1 150.29-5.9Q150.29-3 153.29-3L153.29-3Q154.59-3 156.09-3.6L156.09-3.6ZM175.98-24.5L175.18-21.7Q173.38-22.3 170.28-22.3 167.18-22.3 165.48-21.2 163.78-20.1 163.78-18.48 163.78-16.85 164.78-16.1 165.78-15.35 167.28-14.83 168.78-14.3 170.56-13.8 172.33-13.3 173.83-12.5L173.83-12.5Q177.33-10.7 177.33-7.15 177.33-3.6 174.91-1.7 172.48 0.2 167.83 0.2L167.83 0.2Q165.48 0.2 163.31-0.28 161.13-0.75 159.98-1.6L159.98-1.6 161.08-4.25Q162.23-3.25 165.73-2.8L165.73-2.8Q166.83-2.65 167.98-2.65L167.98-2.65Q170.58-2.65 172.33-3.73 174.08-4.8 174.08-7L174.08-7Q174.08-8.5 173.08-9.35 172.08-10.2 170.58-10.78 169.08-11.35 167.31-11.8 165.53-12.25 164.03-12.98 162.53-13.7 161.53-14.88 160.53-16.05 160.53-18.05L160.53-18.05Q160.53-21.3 163.03-23.25 165.53-25.2 169.73-25.2L169.73-25.2Q170.78-25.2 171.88-25.08 172.98-24.95 173.88-24.85L173.88-24.85 175.98-24.5ZM208.13-3.6L208.73-0.9Q207.83 0 205.48 0L205.48 0Q202.18 0 201.03-1.7L201.03-1.7Q199.08-3.55 199.08-6.7L199.08-6.7 199.08-22.1 196.28-22.1 196.73-25 199.08-25 199.08-29.95 202.33-30.25 202.33-25 208.13-25 208.13-22.1 202.33-22.1 202.33-5.9Q202.33-3 205.33-3L205.33-3Q206.63-3 208.13-3.6L208.13-3.6ZM217.03-37.5L217.03-22.15Q220.97-25 224.63-25.15L224.63-25.15Q227.72-25.15 229.38-24.4 231.03-23.65 232.08-22.28 233.13-20.9 233.13-18.4L233.13-18.4 233.13 0 229.88 0 229.88-17.55Q229.88-19.4 229.08-20.4L229.08-20.4Q227.47-22.25 224.18-22.25L224.18-22.25Q220.93-22.1 217.03-20.15L217.03-20.15 217.03 0 213.78 0 213.78-37.25 217.03-37.5ZM238.57-19.9L237.67-22.3Q243.12-25 247.22-25.15L247.22-25.15Q250.47-25.15 252.25-24.33 254.02-23.5 255.12-22.03 256.22-20.55 256.22-17.9L256.22-17.9 256.22 0 252.97 0 252.97-1.9Q246.12 0.2 244.17 0.2L244.17 0.2Q244.07 0.2 244.02 0.2L244.02 0.2Q239.52 0.2 237.87-2.55L237.87-2.55Q237.27-3.55 237.2-4.5 237.12-5.45 237.12-6.1L237.12-6.1Q237.12-7.9 238.52-9.33 239.92-10.75 241.87-11.25L241.87-11.25Q245.17-12.1 252.97-12.75L252.97-12.75 252.97-16.8Q252.97-22.25 247.27-22.25L247.27-22.25Q243.27-22.25 238.57-19.9L238.57-19.9ZM240.17-5.7L240.17-5.7Q240.17-2.1 245.12-2.1L245.12-2.1Q249.07-2.1 252.97-3.8L252.97-3.8 252.97-10.95Q245.17-9.85 243.32-9.25L243.32-9.25Q240.17-8.25 240.17-5.7ZM271.57-3.6L272.17-0.9Q271.27 0 268.92 0L268.92 0Q265.62 0 264.47-1.7L264.47-1.7Q262.52-3.55 262.52-6.7L262.52-6.7 262.52-22.1 259.72-22.1 260.17-25 262.52-25 262.52-29.95 265.77-30.25 265.77-25 271.57-25 271.57-22.1 265.77-22.1 265.77-5.9Q265.77-3 268.77-3L268.77-3Q270.07-3 271.57-3.6L271.57-3.6ZM309.07-3.5Q307.42-1.85 305.39-1.03 303.37-0.2 301.92-0.1 300.47 0 299.07 0 297.67 0 296.02-0.25L296.02-0.25 296.02 12.25 292.77 12.5 292.77-23.7Q293.87-24.05 296.14-24.75 298.42-25.45 300.99-25.45 303.57-25.45 305.44-25.03 307.32-24.6 308.92-23.4L308.92-23.4Q312.67-20.5 312.67-13.8 312.67-7.1 309.07-3.5L309.07-3.5ZM296.02-21.7L296.02-2.8Q297.52-2.45 299.22-2.45L299.22-2.45Q304.12-2.45 306.77-5.35 309.42-8.25 309.42-13.5 309.42-18.75 306.72-21L306.72-21Q304.82-22.55 301.84-22.55 298.87-22.55 296.02-21.7L296.02-21.7ZM319.56-12.3L319.56-11.5Q319.56-2.7 327.96-2.7L327.96-2.7Q331.51-2.7 334.46-3.65L334.46-3.65Q335.21-3.9 335.51-4.05L335.51-4.05 336.26-1.4Q334.51-0.35 329.91 0.1L329.91 0.1Q328.61 0.2 327.16 0.2L327.16 0.2Q322.96 0.2 320.16-1.9L320.16-1.9Q316.31-4.75 316.31-11.4 316.31-18.05 319.79-21.63 323.26-25.2 328.21-25.2 333.16-25.2 335.66-22L335.66-22Q337.56-19.45 337.56-15.25L337.56-15.25Q337.56-14.25 337.46-13.15L337.46-13.15 319.61-13.15Q319.56-12.75 319.56-12.3L319.56-12.3ZM328.41-22.1L328.41-22.1Q325.31-22.1 323.11-20.23 320.91-18.35 320.06-15.4L320.06-15.4 334.61-15.4Q334.36-20.95 330.31-21.85L330.31-21.85Q329.41-22.1 328.41-22.1ZM356.21-24.5L354.91-21.5Q354.11-21.95 353.21-21.95 352.31-21.95 352.21-21.9L352.21-21.9Q350.31-21.9 348.38-20.53 346.46-19.15 345.11-17.45L345.11-17.45 345.11 0 341.86 0 341.86-25 345.11-25.25 345.11-19.65Q346.96-22 348.26-22.95L348.26-22.95Q350.66-24.75 352.86-24.85L352.86-24.85Q353.16-24.9 353.96-24.9 354.76-24.9 356.21-24.5L356.21-24.5ZM360.51-25L360.51-30.9Q360.51-37.7 368.01-37.7L368.01-37.7Q369.96-37.7 371.46-37.3L371.46-37.3 370.96-34.5Q369.26-34.75 368.08-34.75 366.91-34.75 365.96-34.35L365.96-34.35Q363.76-33.35 363.76-29.75L363.76-29.75 363.76-25 369.96-25 369.96-22.1 363.76-22.1 363.76 0 360.51 0 360.51-22.1 357.71-22.1 358.16-25 360.51-25ZM374.96-12.3L374.96-11.5Q374.96-2.7 383.36-2.7L383.36-2.7Q386.91-2.7 389.86-3.65L389.86-3.65Q390.61-3.9 390.91-4.05L390.91-4.05 391.66-1.4Q389.91-0.35 385.31 0.1L385.31 0.1Q384.01 0.2 382.56 0.2L382.56 0.2Q378.36 0.2 375.56-1.9L375.56-1.9Q371.71-4.75 371.71-11.4 371.71-18.05 375.18-21.63 378.66-25.2 383.61-25.2 388.56-25.2 391.06-22L391.06-22Q392.96-19.45 392.96-15.25L392.96-15.25Q392.96-14.25 392.86-13.15L392.86-13.15 375.01-13.15Q374.96-12.75 374.96-12.3L374.96-12.3ZM383.81-22.1L383.81-22.1Q380.71-22.1 378.51-20.23 376.31-18.35 375.46-15.4L375.46-15.4 390.01-15.4Q389.76-20.95 385.71-21.85L385.71-21.85Q384.81-22.1 383.81-22.1ZM413.45-16.4L413.2-21.65Q411.15-22.3 409-22.3L409-22.3Q404.65-22.3 402.03-19.5 399.4-16.7 399.4-11.6L399.4-11.6Q399.4-2.7 407.65-2.7L407.65-2.7Q410.95-2.7 414.45-3.8L414.45-3.8Q415.15-4 415.3-4.1L415.3-4.1 416.1-1.4Q414.35-0.35 409.75 0.1L409.75 0.1Q408.45 0.2 407 0.2L407 0.2Q402.75 0.2 400-1.9L400-1.9Q396.15-4.8 396.15-11.45 396.15-18.1 399.73-21.68 403.3-25.25 408.95-25.25L408.95-25.25Q410.75-25.25 412.78-24.78 414.8-24.3 415.9-23.3L415.9-23.3 415.9-16.75 413.45-16.4ZM431.7-3.6L432.3-0.9Q431.4 0 429.05 0L429.05 0Q425.75 0 424.6-1.7L424.6-1.7Q422.65-3.55 422.65-6.7L422.65-6.7 422.65-22.1 419.85-22.1 420.3-25 422.65-25 422.65-29.95 425.9-30.25 425.9-25 431.7-25 431.7-22.1 425.9-22.1 425.9-5.9Q425.9-3 428.9-3L428.9-3Q430.2-3 431.7-3.6L431.7-3.6ZM440.6 0L437.35 0 437.35-37.25 440.6-37.5 440.6 0ZM453.5 0L444.6-25 448.25-25.25 455.7-2.35 465.3-25 468.8-25 452.2 12.5 449.15 12.5 454.65 0 453.5 0ZM490.64-25L490.64-30.9Q490.64-37.7 498.14-37.7L498.14-37.7Q500.09-37.7 501.59-37.3L501.59-37.3 501.09-34.5Q499.39-34.75 498.22-34.75 497.04-34.75 496.09-34.35L496.09-34.35Q493.89-33.35 493.89-29.75L493.89-29.75 493.89-25 500.09-25 500.09-22.1 493.89-22.1 493.89 0 490.64 0 490.64-22.1 487.84-22.1 488.29-25 490.64-25ZM504.84-25L508.09-25.25 508.09 0 504.84 0 504.84-25ZM506.34-31.7Q505.34-31.7 504.81-32.35 504.29-33 504.29-34 504.29-35 504.86-35.63 505.44-36.25 506.44-36.25 507.44-36.25 508.06-35.63 508.69-35 508.69-33.9 508.69-32.8 508.01-32.25 507.34-31.7 506.34-31.7ZM525.03-3.6L525.63-0.9Q524.74 0 522.38 0L522.38 0Q519.09 0 517.93-1.7L517.93-1.7Q515.99-3.55 515.99-6.7L515.99-6.7 515.99-22.1 513.18-22.1 513.63-25 515.99-25 515.99-29.95 519.24-30.25 519.24-25 525.03-25 525.03-22.1 519.24-22.1 519.24-5.9Q519.24-3 522.24-3L522.24-3Q523.53-3 525.03-3.6L525.03-3.6ZM553.63 0L544.73-25 548.38-25.25 555.83-2.35 565.43-25 568.93-25 552.33 12.5 549.28 12.5 554.78 0 553.63 0ZM570.73-6.4L570.73-6.4Q569.83-8.8 569.83-12L569.83-12Q569.83-18.15 573.28-21.68 576.73-25.2 581.93-25.2L581.93-25.2Q590.08-25.2 592.63-18.6L592.63-18.6Q593.58-16.2 593.58-13L593.58-13Q593.58-6.85 590.13-3.33 586.68 0.2 581.48 0.2L581.48 0.2Q573.33 0.2 570.73-6.4ZM573.08-12.35Q573.08-7.75 575.45-5.23 577.83-2.7 581.58-2.7 585.33-2.7 587.83-5.38 590.33-8.05 590.33-12.65 590.33-17.25 587.98-19.78 585.63-22.3 581.85-22.3 578.08-22.3 575.58-19.63 573.08-16.95 573.08-12.35ZM603.77-3.2L603.77-3.2Q604.87-2.8 607.27-2.8 609.67-2.8 613.47-4.75L613.47-4.75 613.47-25 616.72-25.25 616.72 0 613.47 0 613.47-2.7Q609.77 0.15 605.92 0.15L605.92 0.15Q601.12 0.15 598.97-2.7L598.97-2.7Q597.87-4.1 597.87-6.6L597.87-6.6 597.87-25 601.12-25.25 601.12-7.45Q601.12-4.35 603.77-3.2ZM637.57-24.5L636.27-21.5Q635.47-21.95 634.57-21.95 633.67-21.95 633.57-21.9L633.57-21.9Q631.67-21.9 629.75-20.53 627.82-19.15 626.47-17.45L626.47-17.45 626.47 0 623.22 0 623.22-25 626.47-25.25 626.47-19.65Q628.32-22 629.62-22.95L629.62-22.95Q632.02-24.75 634.22-24.85L634.22-24.85Q634.52-24.9 635.32-24.9 636.12-24.9 637.57-24.5L637.57-24.5ZM658.77-25.25L658.77-22.25Q662.52-25 665.87-25.15L665.87-25.15Q668.92-25.15 670.57-24.4 672.22-23.65 673.29-22.28 674.37-20.9 674.37-18.4L674.37-18.4 674.37 0 671.12 0 671.12-17.55Q671.12-19.4 670.32-20.4L670.32-20.4Q668.72-22.25 665.42-22.25L665.42-22.25Q662.27-22.1 658.77-20.2L658.77-20.2 658.77 0 655.52 0 655.52-25 658.77-25.25ZM683.36-12.3L683.36-11.5Q683.36-2.7 691.76-2.7L691.76-2.7Q695.31-2.7 698.26-3.65L698.26-3.65Q699.01-3.9 699.31-4.05L699.31-4.05 700.06-1.4Q698.31-0.35 693.71 0.1L693.71 0.1Q692.41 0.2 690.96 0.2L690.96 0.2Q686.76 0.2 683.96-1.9L683.96-1.9Q680.11-4.75 680.11-11.4 680.11-18.05 683.59-21.63 687.06-25.2 692.01-25.2 696.96-25.2 699.46-22L699.46-22Q701.36-19.45 701.36-15.25L701.36-15.25Q701.36-14.25 701.26-13.15L701.26-13.15 683.41-13.15Q683.36-12.75 683.36-12.3L683.36-12.3ZM692.21-22.1L692.21-22.1Q689.11-22.1 686.91-20.23 684.71-18.35 683.86-15.4L683.86-15.4 698.41-15.4Q698.16-20.95 694.11-21.85L694.11-21.85Q693.21-22.1 692.21-22.1ZM708.06-12.3L708.06-11.5Q708.06-2.7 716.46-2.7L716.46-2.7Q720.01-2.7 722.96-3.65L722.96-3.65Q723.71-3.9 724.01-4.05L724.01-4.05 724.76-1.4Q723.01-0.35 718.41 0.1L718.41 0.1Q717.11 0.2 715.66 0.2L715.66 0.2Q711.46 0.2 708.66-1.9L708.66-1.9Q704.81-4.75 704.81-11.4 704.81-18.05 708.29-21.63 711.76-25.2 716.71-25.2 721.66-25.2 724.16-22L724.16-22Q726.06-19.45 726.06-15.25L726.06-15.25Q726.06-14.25 725.96-13.15L725.96-13.15 708.11-13.15Q708.06-12.75 708.06-12.3L708.06-12.3ZM716.91-22.1L716.91-22.1Q713.81-22.1 711.61-20.23 709.41-18.35 708.56-15.4L708.56-15.4 723.11-15.4Q722.86-20.95 718.81-21.85L718.81-21.85Q717.91-22.1 716.91-22.1ZM742.66-25.25L742.66-25.25Q745.61-25.25 748.26-23.5L748.26-23.5 748.26-37.25 751.51-37.5 751.51-1.15 751.26-1.15Q749.71-0.5 746.08-0.15 742.46 0.2 741.06 0.2L741.06 0.2Q736.86 0.2 734.11-1.9L734.11-1.9Q730.26-4.8 730.26-11.45 730.26-18.1 733.83-21.68 737.41-25.25 742.66-25.25ZM748.26-3.2L748.26-21.35Q745.76-22.3 743.36-22.3L743.36-22.3Q738.76-22.3 736.13-19.5 733.51-16.7 733.51-11.55 733.51-6.4 736.36-4.3L736.36-4.3Q738.41-2.7 741.53-2.7 744.66-2.7 748.26-3.2L748.26-3.2ZM771.26-24.5L770.46-21.7Q768.66-22.3 765.56-22.3 762.46-22.3 760.76-21.2 759.06-20.1 759.06-18.48 759.06-16.85 760.06-16.1 761.06-15.35 762.56-14.83 764.06-14.3 765.83-13.8 767.61-13.3 769.11-12.5L769.11-12.5Q772.61-10.7 772.61-7.15 772.61-3.6 770.18-1.7 767.76 0.2 763.11 0.2L763.11 0.2Q760.76 0.2 758.58-0.28 756.41-0.75 755.26-1.6L755.26-1.6 756.36-4.25Q757.51-3.25 761.01-2.8L761.01-2.8Q762.11-2.65 763.26-2.65L763.26-2.65Q765.86-2.65 767.61-3.73 769.36-4.8 769.36-7L769.36-7Q769.36-8.5 768.36-9.35 767.36-10.2 765.86-10.78 764.36-11.35 762.58-11.8 760.81-12.25 759.31-12.98 757.81-13.7 756.81-14.88 755.81-16.05 755.81-18.05L755.81-18.05Q755.81-21.3 758.31-23.25 760.81-25.2 765.01-25.2L765.01-25.2Q766.06-25.2 767.16-25.08 768.26-24.95 769.16-24.85L769.16-24.85 771.26-24.5Z" opacity="1" transform="matrix(1,0,0,1,0,0)" fill="#dcdcdc" class="slogan-text-1" data-fill-palette-color="secondary" id="text-1"></path></svg></g></svg></g></svg></g></svg></g></svg></g></svg></g></svg></g><path d="M205.734 84.527L205.734 22.305 3.144 22.305 3.144 224.895 205.734 224.895 205.734 162.673 202.072 162.673 202.072 221.233 6.806 221.233 6.806 25.967 202.072 25.967 202.072 84.527Z" fill="#ff4057" stroke="transparent" data-fill-palette-color="primary"></path></svg></g><defs></defs></svg><rect width="395.52" height="247.2" fill="none" stroke="none" visibility="hidden"></rect></g></svg></g></svg>