<svg xmlns="http://www.w3.org/2000/svg" version="1.1" xmlns:xlink="http://www.w3.org/1999/xlink" xmlns:svgjs="http://svgjs.dev/svgjs" width="128" height="128" viewBox="0 0 128 128"><g transform="matrix(0.8046875,0,0,0.8046875,12.333870967741937,12.333870967741937)"><svg viewBox="0 0 155 155" data-background-color="#282634" preserveAspectRatio="xMidYMid meet" height="128" width="128" xmlns="http://www.w3.org/2000/svg" xmlns:xlink="http://www.w3.org/1999/xlink"><g id="tight-bounds" transform="matrix(1,0,0,1,0.25,0.25)"><svg viewBox="0 0 154.5 154.5" height="154.5" width="154.5"><g><svg></svg></g><g><svg viewBox="0 0 154.5 154.5" height="154.5" width="154.5"><g transform="matrix(1,0,0,1,55.93182904573171,47.746371)"><svg viewBox="0 0 42.63634190853658 59.00725799999999" height="59.00725799999999" width="42.63634190853658"><g><svg viewBox="0 0 42.63634190853658 59.00725799999999" height="59.00725799999999" width="42.63634190853658"><g><svg viewBox="0 0 42.63634190853658 59.00725799999999" height="59.00725799999999" width="42.63634190853658"><g id="textblocktransform"><svg viewBox="0 0 42.63634190853658 59.00725799999999" height="59.00725799999999" width="42.63634190853658" id="textblock"><g><svg viewBox="0 0 42.63634190853658 59.00725799999999" height="59.00725799999999" width="42.63634190853658"><g transform="matrix(1,0,0,1,0,0)"><svg width="42.63634190853658" viewBox="4.5 -32.8 23.7 32.8" height="59.00725799999999" data-palette-color="#ff4057"><path d="M12.9 0L4.5 0 4.5-32.8 12.7-32.8Q20.3-32.8 24.25-28.6 28.2-24.4 28.2-16.55L28.2-16.55Q28.2-12.65 27.2-9.58 26.2-6.5 24.25-4.38 22.3-2.25 19.45-1.13 16.6 0 12.9 0L12.9 0ZM8.65-29.4L8.65-3.4 12.4-3.4Q18.15-3.4 21.03-6.85 23.9-10.3 23.9-16.55L23.9-16.55Q23.9-22.8 21.03-26.1 18.15-29.4 12.4-29.4L12.4-29.4 8.65-29.4Z" opacity="1" transform="matrix(1,0,0,1,0,0)" fill="#ff4057" class="wordmark-text-0" data-fill-palette-color="primary" id="text-0"></path></svg></g></svg></g></svg></g></svg></g></svg></g></svg></g><path d="M55.932 41.746L55.932 1 98.568 1 98.568 41.746 93.247 41.746 93.247 6.321 61.253 6.321 61.253 41.746 55.932 41.746M55.932 112.754L55.932 153.5 98.568 153.5 98.568 112.754 93.247 112.754 93.247 148.179 61.253 148.179 61.253 112.754 55.932 112.754" fill="#ff4057" stroke="transparent" data-fill-palette-color="primary"></path></svg></g><defs></defs></svg><rect width="154.5" height="154.5" fill="none" stroke="none" visibility="hidden"></rect></g></svg></g></svg>